<?xml version="1.0" encoding="utf-8"?>
<svg bbwidth="581.8478393554688" bbheight="581.847900390625" viewBox="0 0 582 582" xmlns="http://www.w3.org/2000/svg">
  <title>HAL 2000</title>
  <defs>
    <filter id="filter4590" color-interpolation-filters="sRGB" width="1.2511" y="-.13747" x="-.12557" height="1.275">
      <feGaussianBlur id="feGaussianBlur4592" stdDeviation="7.51646"/>
    </filter>
    <radialGradient id="radialGradient4614" cx="479.32" gradientUnits="userSpaceOnUse" cy="298.28" r="220.13">
      <stop id="stop3798" stop-color="#bcbaba" offset="0"/>
      <stop id="stop3808" stop-color="#b8bab8" offset="0.4244"/>
      <stop id="stop3806" stop-color="#656567" offset="0.6836"/>
      <stop id="stop3800" stop-color="#b2b2b2" offset="1"/>
    </radialGradient>
    <radialGradient id="radialGradient4616" gradientUnits="userSpaceOnUse" spreadMethod="repeat" cx="479.32" cy="298.28" r="220.13">
      <stop id="stop3820" stop-color="#bcbaba" offset="0"/>
      <stop id="stop3822" stop-color="#b8bab8" offset="0.5299"/>
      <stop id="stop3824" stop-color="#656567" offset="0.8075"/>
      <stop id="stop3826" stop-color="#b2b2b2" offset="1"/>
    </radialGradient>
    <radialGradient id="radialGradient4618" gradientUnits="userSpaceOnUse" cx="476.29" cy="298.28" r="220.13" gradientTransform="translate(-492.7 -15.91)">
      <stop id="stop3179" stop-color="#bcbaba" stop-opacity="0" offset="0"/>
      <stop id="stop3181" stop-color="#b8bab8" stop-opacity="0" offset="0.2179"/>
      <stop id="stop3183" stop-color="#676563" offset="0.7162"/>
      <stop id="stop3185" stop-color="#b2b2b2" stop-opacity="0" offset="1"/>
    </radialGradient>
    <radialGradient id="radialGradient4620" gradientUnits="userSpaceOnUse" spreadMethod="repeat" cx="476.29" cy="298.28" r="220.13" gradientTransform="translate(-492.7 -15.91)">
      <stop id="stop3189" stop-color="#bcbaba" offset="0"/>
      <stop id="stop3191" stop-color="#b8bab8" offset="0.4244"/>
      <stop id="stop3193" stop-color="#656567" offset="0.9268"/>
      <stop id="stop3195" stop-color="#b2b2b2" offset="1"/>
    </radialGradient>
    <radialGradient id="radialGradient4622" cx="477.75" gradientUnits="userSpaceOnUse" cy="815.82" r="219.71">
      <stop id="stop3820-4" stop-color="#dfdfe1" offset="0"/>
      <stop id="stop3822-9" stop-color="#d4d2d4" offset="0.5299"/>
      <stop id="stop3824-4" stop-color="#656567" offset="0.8075"/>
      <stop id="stop3826-6" stop-color="#d4d2d0" offset="1"/>
    </radialGradient>
    <radialGradient id="radialGradient4624" gradientUnits="userSpaceOnUse" cx="-19.193" cy="520.01" r="73.741" gradientTransform="matrix(1.0335 -.030796 .033282 1.1422 -16.664 -74.524)">
      <stop id="stop4042" stop-color="#ff0d1d" offset="0"/>
      <stop id="stop4048" stop-color="#d40000" stop-opacity=".83648" offset="0.4722"/>
      <stop id="stop4050" stop-color="#d40000" stop-opacity=".59748" offset="0.6758"/>
      <stop id="stop4044" stop-color="#d40000" stop-opacity=".0566" offset="1"/>
    </radialGradient>
    <radialGradient id="radialGradient4626" gradientUnits="userSpaceOnUse" cx="49.497" cy="86.656" r="78.792" gradientTransform="matrix(1 0 0 .98718 0 1.111)">
      <stop id="stop4056" stop-color="#ffa74d" stop-opacity=".74843" offset="0"/>
      <stop id="stop4062" stop-color="#ff270f" offset="0.2821"/>
      <stop id="stop4058" stop-color="#ff0000" stop-opacity="0" offset="1"/>
    </radialGradient>
    <radialGradient id="radialGradient4628" gradientUnits="userSpaceOnUse" cx="93.944" cy="109.89" r="13.132" gradientTransform="translate(-100.26 417.95)">
      <stop id="stop4068" stop-color="#ffff00" offset="0"/>
      <stop id="stop4070" stop-color="#ffa500" stop-opacity="0" offset="1"/>
    </radialGradient>
    <radialGradient id="radialGradient4630" gradientUnits="userSpaceOnUse" cx="185.37" cy="3.8315" r="154.05" gradientTransform="matrix(-1.4236 .023734 -.014781 -.58739 255.89 423.29)">
      <stop id="stop4139-4-3" stop-color="#e4e2e2" offset="0"/>
      <stop id="stop4141-72-0" stop-color="#ddd9dc" stop-opacity=".16352" offset="1"/>
    </radialGradient>
    <radialGradient id="radialGradient4632" gradientUnits="userSpaceOnUse" cx="185.37" cy="3.8315" r="154.05" gradientTransform="matrix(-2.5288 .051335 -.026256 -1.2705 462.54 381.33)">
      <stop id="stop4139-4" stop-color="#e4e2e2" offset="0"/>
      <stop id="stop4141-72" stop-color="#ddd9dc" stop-opacity=".16352" offset="1"/>
    </radialGradient>
    <radialGradient id="radialGradient4634" gradientUnits="userSpaceOnUse" cx="185.37" cy="3.8315" r="154.05" gradientTransform="matrix(-.69907 .007845 -.0072584 -.19415 120.52 444.87)">
      <stop id="stop4139-0-6" stop-color="#e4e2e2" offset="0"/>
      <stop id="stop4141-9-4" stop-color="#ddd9dc" stop-opacity=".16352" offset="1"/>
    </radialGradient>
    <radialGradient id="radialGradient4636" gradientUnits="userSpaceOnUse" cx="185.37" cy="3.8315" r="154.05" gradientTransform="matrix(-.80264 .011990 -.0083338 -.29675 518.55 332.9)">
      <stop id="stop4139-4-5" stop-color="#e4e2e2" offset="0"/>
      <stop id="stop4141-72-5" stop-color="#ddd9dc" stop-opacity=".16352" offset="1"/>
    </radialGradient>
    <radialGradient id="radialGradient4638" gradientUnits="userSpaceOnUse" cx="185.37" cy="3.8315" r="154.05" gradientTransform="matrix(-.50970 .0061556 -.0052922 -.15234 464.24 352.12)">
      <stop id="stop4139-4-5-3" stop-color="#e4e2e2" offset="0"/>
      <stop id="stop4141-72-5-4" stop-color="#ddd9dc" stop-opacity=".16352" offset="1"/>
    </radialGradient>
  </defs>
  <g transform="matrix(1, 0, 0, 1, 0, 70)">
    <title>Layer 1</title>
    <g id="imagebot_1">
      <g id="g4469" transform="translate(297.24 -236.92)" label="Ebene 1">
        <g id="g4074">
          <path id="path2996" stroke-linejoin="round" d="m706.1 543.75c0 121.34-98.37 219.71-219.71 219.71s-219.71-98.37-219.71-219.71 98.37-219.71 219.71-219.71 219.71 98.37 219.71 219.71z" transform="matrix(1 0 0 -1 -492.7 1071.6)" stroke="url(#radialGradient4616)" stroke-linecap="round" stroke-width=".848" fill="url(#radialGradient4614)"/>
          <path id="path2996-0" stroke-linejoin="round" d="m213.4 527.84c0 121.34-98.37 219.71-219.71 219.71-121.35 0-219.71-98.37-219.71-219.71s98.36-219.71 219.71-219.71c121.34 0 219.71 98.37 219.71 219.71z" stroke="url(#radialGradient4620)" stroke-linecap="round" stroke-width=".848" fill="url(#radialGradient4618)"/>
          <path id="path2996-5" d="m706.1 543.75c0 121.34-98.37 219.71-219.71 219.71s-219.71-98.37-219.71-219.71 98.37-219.71 219.71-219.71 219.71 98.37 219.71 219.71z" transform="matrix(.93563 0 0 .93563 -461.39 19.09)" fill="url(#radialGradient4622)"/>
          <path id="path2996-6" d="m706.1 543.75c0 121.34-98.37 219.71-219.71 219.71s-219.71-98.37-219.71-219.71 98.37-219.71 219.71-219.71 219.71 98.37 219.71 219.71z" transform="matrix(.82759 0 0 .82759 -408.84 77.84)" fill="#000000"/>
          <path id="path4038" d="m54.548 520.01c0 42.36-33.015 76.7-73.741 76.7s-73.741-34.34-73.741-76.7 33.015-76.7 73.741-76.7c40.377 0 73.245 33.77 73.736 75.77" transform="matrix(2.0479 0 0 2.0084 32.993 -516.54)" fill="url(#radialGradient4624)"/>
          <path id="path4052" d="m128.29 86.656c0 42.954-35.277 77.784-78.793 77.784-43.515 0-78.791-34.83-78.791-77.784 0-42.957 35.276-77.781 78.791-77.781 43.143-0.0004 78.263 34.25 78.783 76.836" transform="matrix(1.2372 0 0 1.2372 -67.551 420.63)" fill="url(#radialGradient4626)"/>
          <path id="path4064" d="m6.8185 527.84c0 7.25-5.8794 13.13-13.132 13.13-7.2525 0-13.132-5.88-13.132-13.13 0.001-7.25 5.88-13.13 13.133-13.13 7.1899 0 13.043 5.78 13.131 12.97" fill="url(#radialGradient4628)"/>
        </g>
        <path id="path2996-52-9-3" opacity=".65476" d="m-8.0527 418.98c-14.039 0-27.275 2.84-38.878 7.83 4.346 2.68 8.517 5.53 12.508 8.54 8.284-2.25 17.157-3.47 26.37-3.47 8.0219 0 15.776 0.93 23.116 2.65 4.301-3.08 8.791-5.97 13.476-8.67-11.05-4.41-23.457-6.88-36.592-6.88h0.0003zm60.06 20.82c-3.862 1.51-7.627 3.14-11.312 4.88 7.509 4.42 14.084 9.83 19.422 16 2.503-0.77 5.029-1.49 7.582-2.15-3.925-6.96-9.258-13.28-15.692-18.73zm-120.98 0.77c-6.8 5.93-12.317 12.86-16.167 20.48 2.259 0.73 4.505 1.5 6.72 2.32 5.357-6.87 12.199-12.9 20.143-17.79-3.475-1.78-7.05-3.44-10.696-5.01zm144.24 46.77c-0.441 0.09-0.879 0.19-1.319 0.28 0.408 1.85 0.73 3.73 0.95 5.63 0.226-1.96 0.351-3.92 0.369-5.91zm-166.54 2.47c0.062 1.15 0.167 2.3 0.299 3.44 0.126-1.09 0.27-2.16 0.458-3.23-0.253-0.07-0.504-0.14-0.757-0.21z" fill="url(#radialGradient4630)"/>
        <path id="path2996-52-9" opacity=".96825" d="m-6.3284 372.01c-24.939 0-48.435 6.13-69.048 16.93 7.721 5.79 15.127 11.97 22.216 18.48 14.716-4.86 30.465-7.5 46.832-7.5 14.249 0 28.028 1.99 41.068 5.71 7.639-6.65 15.635-12.91 23.956-18.74-19.63-9.53-41.693-14.88-65.024-14.88zm106.69 45.05c-6.855 3.26-13.534 6.79-20.079 10.56 33.629 24.08 56.629 61.84 60.729 105.03 0.44-4.59 0.66-9.25 0.66-13.95 0-39.47-15.72-75.27-41.31-101.64zm-214.91 1.64c-24.65 26.2-39.75 61.34-39.75 100 0 4.7 0.22 9.36 0.66 13.95 4-42.06 25.9-78.95 58.091-103.09-6.171-3.86-12.531-7.47-19.001-10.86z" fill="url(#radialGradient4632)"/>
        <path id="path2996-52-89-4" opacity=".4246" d="m-9.0955 443.45c-22.594 0-40.906 10.04-40.906 22.42 0.001 0.72 0.062 1.43 0.183 2.13 1.957-11.38 19.44-20.28 40.724-20.28 21.283 0 38.774 8.9 40.731 20.28 0.121-0.7 0.182-1.41 0.182-2.13 0-12.38-18.319-22.42-40.914-22.42z" fill="url(#radialGradient4634)"/>
      </g>
      <path id="path2996-52-9-7" opacity=".52968" d="m369.73 330.73c-7.91 0-11.58 0.42-18.13 2.94 1.44 2.87 1.65 3.05 3.27 5.33 4.67-1.14 9.67-1.75 14.86-1.75 4.52 0 8.9 0.46 13.04 1.33 1.16-1.55 1.72-2.99 3.09-5.62-6.23-2.23-8.72-2.23-16.13-2.23zm33.87 10.52c-2.06 1.65-2.53 2.09-3.85 3.98 10.67 5.63 15.44 12.93 16.75 23.02 0.14-1.08 0.21-2.16 0.21-3.26 0-9.22-4.99-17.58-13.11-23.74zm-68.22 0.38c-7.82 6.12-12.61 14.33-12.61 23.36 0 1.1 0.07 2.18 0.21 3.26 1.26-9.83 6.45-15.67 16.66-21.3-1.95-2.8-2.58-3.52-4.26-5.32z" transform="translate(-80.812 -112.92)" label="Ebene 1" fill="url(#radialGradient4636)"/>
      <path id="path2996-52-9-7-0" opacity=".52968" d="m369.73 351c-5.02 0-7.35 0.22-11.51 1.51 0.92 1.48 1.05 1.57 2.07 2.74 2.97-0.58 6.14-0.9 9.44-0.9 2.88 0 5.65 0.24 8.28 0.68 0.74-0.79 1.09-1.53 1.97-2.88-3.96-1.14-5.54-1.15-10.25-1.15zm21.51 5.4c-1.3 0.85-1.61 1.08-2.45 2.05 6.78 2.89 9.81 6.64 10.64 11.82 0.09-0.56 0.13-1.11 0.13-1.68 0-4.73-3.17-9.02-8.32-12.19zm-43.32 0.2c-4.97 3.14-8.01 7.36-8.01 11.99 0 0.57 0.04 1.12 0.13 1.68 0.81-5.05 4.1-8.05 10.59-10.94-1.25-1.44-1.65-1.8-2.71-2.73z" transform="translate(-80.812 -112.92)" label="Ebene 1" fill="url(#radialGradient4638)"/>
      <path id="path4580" opacity=".27381" d="m434.29 320.58c0 29.39-36.46 53.21-81.43 53.21s-81.43-23.82-81.43-53.21 36.46-53.22 81.43-53.22 81.43 23.83 81.43 53.22z" transform="matrix(.78249 -.62266 .62266 .78249 -249.39 170.8)" label="Ebene 1" filter="url(#filter4590)" fill="#ffffff"/>
    </g>
  </g>
</svg>